# Blender v2.68 (sub 0) OBJ File: ''
# www.blender.org
mtllib board.mtl
o Cube
v 3.052083 -0.294041 -5.435625
v 3.052083 -0.294041 5.435626
v -3.052084 -0.294041 5.435625
v -3.052082 -0.294041 -5.435627
v 3.052085 0.294041 -5.435623
v 3.052082 0.294041 5.435629
v -3.052085 0.294041 5.435624
v -3.052083 0.294041 -5.435626
v 2.783830 0.278711 -5.195954
v 2.783827 0.278711 5.195961
v -2.783829 0.278711 5.195955
v -2.783828 0.278711 -5.195958
v 2.783830 -0.151658 -5.195954
v 2.783827 -0.151658 5.195961
v -2.783829 -0.151658 5.195955
v -2.783828 -0.151658 -5.195958
vn 0.000000 -1.000000 0.000000
vn -0.057053 0.998371 -0.000000
vn 1.000000 -0.000002 0.000000
vn -0.000000 -0.000006 1.000000
vn -1.000000 -0.000001 -0.000000
vn 0.000000 0.000004 -1.000000
vn 1.000000 0.000000 0.000000
vn -0.000000 0.997961 0.063832
vn 0.000000 0.997961 -0.063832
vn 0.057053 0.998371 0.000000
vn -0.000000 1.000000 0.000000
vn -1.000000 0.000000 -0.000000
vn -0.000001 0.000000 1.000000
vn 0.000001 0.000000 -1.000000
vn 1.000000 0.000003 -0.000000
vn -0.000001 0.000002 1.000000
vn -1.000000 -0.000002 -0.000000
vn 0.000000 0.000003 -1.000000
usemtl Material
s off
f 1//1 2//1 4//1
f 6//2 5//2 10//2
f 1//3 5//3 6//3
f 2//4 6//4 3//4
f 3//5 7//5 4//5
f 5//6 1//6 8//6
f 12//7 11//7 16//7
f 5//8 8//8 9//8
f 7//9 6//9 11//9
f 8//10 7//10 12//10
f 13//11 16//11 14//11
f 10//12 9//12 14//12
f 9//13 12//13 13//13
f 11//14 10//14 15//14
f 2//1 3//1 4//1
f 5//2 9//2 10//2
f 2//15 1//15 6//15
f 6//16 7//16 3//16
f 7//17 8//17 4//17
f 1//18 4//18 8//18
f 11//7 15//7 16//7
f 8//8 12//8 9//8
f 6//9 10//9 11//9
f 7//10 11//10 12//10
f 16//11 15//11 14//11
f 9//12 13//12 14//12
f 12//13 16//13 13//13
f 10//14 14//14 15//14
