# Blender v2.68 (sub 0) OBJ File: 'hockeyBoard1.blend'
# www.blender.org
mtllib hockeyBoard1.mtl
o Cube
v 5.313338 -0.571643 -7.981896
v 5.313343 0.749386 -7.981884
v 5.313340 0.088871 -7.981890
v 1.510809 0.177594 -7.655220
v 1.476661 0.749386 -7.655220
v 4.998972 0.177594 -7.655217
v 1.510809 -0.394198 -7.655220
v 4.998972 -0.394198 -7.655217
v 4.998972 0.749386 -7.655217
v 1.667993 0.088871 -7.981893
v 1.667992 -0.571643 -7.981898
v 1.667992 -0.421788 -7.981898
v 5.313338 -0.571643 -3.978006
v 5.313339 -0.418456 -7.981893
v 5.313339 0.088871 -3.978003
v 5.313339 -0.418456 -3.978004
v 1.633847 0.749386 -7.981887
v 5.313340 0.749386 -3.978000
v 4.998969 0.749386 -3.814666
v 4.998969 -0.394198 -3.814666
v 4.998969 0.177594 -3.814666
v 1.592946 -0.394198 -3.814666
v -5.253921 -0.571643 -7.981896
v -5.253925 0.749386 -7.981884
v 0.029709 -0.394198 -7.655222
v 0.029709 -0.571643 -7.981900
v -5.253922 0.088871 -7.981890
v -1.451391 0.177594 -7.655220
v -1.417243 0.749386 -7.655220
v -4.939554 0.177594 -7.655217
v 0.029709 0.177594 -7.655222
v 0.029709 0.749386 -7.655222
v 0.029709 0.749386 -7.981891
v -1.451391 -0.394198 -7.655220
v -4.939554 -0.394198 -7.655217
v -4.939554 0.749386 -7.655217
v 0.029709 0.088871 -7.981897
v -1.608575 0.088871 -7.981893
v -1.608574 -0.571643 -7.981898
v 0.029709 -0.403524 -7.981900
v -1.608574 -0.421788 -7.981898
v -5.253921 -0.571643 -3.978006
v -5.253922 -0.418456 -7.981893
v -5.253922 0.088871 -3.978003
v -5.253921 -0.418456 -3.978004
v -1.574429 0.749386 -7.981887
v -5.253922 0.749386 -3.978000
v -4.939551 0.749386 -3.814666
v -4.939551 -0.394198 -3.814666
v -4.939551 0.177594 -3.814666
v 0.029709 -0.394272 -3.834836
v -1.533528 -0.394198 -3.814666
v 5.313338 -0.571643 8.033666
v 4.998966 -0.394198 0.025885
v 5.313343 0.749386 8.033654
v 5.313338 -0.571643 0.025885
v 5.313340 0.088871 8.033660
v 1.510809 0.177594 7.706990
v 1.476661 0.749386 7.706990
v 4.998972 0.177594 7.706987
v 5.313337 0.749386 0.025885
v 1.510809 -0.394198 7.706990
v 4.998966 0.749386 0.025885
v 5.313338 0.088871 0.025885
v 4.998972 -0.394198 7.706987
v 4.998972 0.749386 7.706987
v 1.667993 0.088871 8.033663
v 1.667992 -0.571643 8.033668
v 1.667992 -0.421788 8.033668
v 5.313338 -0.571643 4.029776
v 5.313339 -0.418456 8.033663
v 5.313339 0.088871 4.029773
v 5.313338 -0.418456 0.025885
v 5.313339 -0.418456 4.029774
v 1.633847 0.749386 8.033657
v 5.313340 0.749386 4.029770
v 4.998969 0.749386 3.866436
v 4.998969 -0.394198 3.866436
v 4.998969 0.177594 3.866436
v 4.998966 0.177594 0.025885
v 1.714282 -0.394272 0.046053
v 1.592946 -0.394198 3.866436
v -5.253921 -0.571643 8.033666
v -4.939548 -0.394198 0.025885
v -5.253925 0.749386 8.033654
v 0.029709 -0.394198 7.706993
v -5.253921 -0.571643 0.025885
v 0.029709 -0.571643 8.033669
v -5.253922 0.088871 8.033660
v -1.451391 0.177594 7.706990
v -1.417243 0.749386 7.706990
v -4.939554 0.177594 7.706987
v 0.029709 0.177594 7.706993
v 0.029709 0.749386 7.706993
v -5.253919 0.749386 0.025885
v 0.029709 0.749386 8.033661
v -1.451391 -0.394198 7.706990
v -4.939548 0.749386 0.025885
v 0.029709 -0.571643 0.025885
v 0.029709 -0.394345 0.025885
v -5.253920 0.088871 0.025885
v -4.939554 -0.394198 7.706987
v -4.939554 0.749386 7.706987
v 0.029709 0.088871 8.033667
v -1.608575 0.088871 8.033663
v -1.608574 -0.571643 8.033668
v 0.029709 -0.403524 8.033669
v -1.608574 -0.421788 8.033668
v -5.253921 -0.571643 4.029776
v -5.253922 -0.418456 8.033663
v -5.253922 0.088871 4.029773
v -5.253921 -0.418456 0.025885
v -5.253921 -0.418456 4.029774
v -1.574429 0.749386 8.033657
v -5.253922 0.749386 4.029770
v -4.939551 0.749386 3.866436
v -4.939551 -0.394198 3.866436
v -4.939551 0.177594 3.866436
v -4.939548 0.177594 0.025885
v 0.029709 -0.394272 3.886606
v -1.654864 -0.394272 0.046053
v -1.533528 -0.394198 3.866436
vt 0.829072 0.180789
vt 0.838853 0.421679
vt 0.807837 0.181214
vt 0.816035 0.424269
vt 0.785988 0.180470
vt 0.619086 0.146000
vt 0.785623 0.143374
vt 0.619146 0.183140
vt 0.802960 0.314051
vt 0.813079 0.321751
vt 0.809898 0.340437
vt 0.625980 0.088471
vt 0.799233 0.085713
vt 0.785285 0.106316
vt 0.615674 0.409618
vt 0.780274 0.417173
vt 0.625673 0.012949
vt 0.625820 0.045738
vt 0.453787 0.013982
vt 0.798888 0.042917
vt 0.852179 0.410323
vt 0.843110 0.158983
vt 0.839217 0.504166
vt 0.879421 0.405623
vt 0.852055 0.504379
vt 0.625623 0.003055
vt 0.453787 0.004119
vt 0.798559 0.000129
vt 0.798634 0.010053
vt 0.907445 0.404741
vt 0.901026 0.404804
vt 0.896345 0.157570
vt 0.873353 0.158250
vt 0.805601 0.436243
vt 0.791716 0.440259
vt 0.816581 0.503809
vt 0.806268 0.503655
vt 0.906283 0.505428
vt 0.899416 0.505273
vt 0.780831 0.502550
vt 0.453786 0.089266
vt 0.618996 0.108908
vt 0.453786 0.109544
vt 0.453786 0.146450
vt 0.615417 0.501623
vt 0.452934 0.396082
vt 0.453786 0.183380
vt 0.825233 0.822298
vt 0.804485 0.821217
vt 0.837661 0.586383
vt 0.783184 0.821261
vt 0.814989 0.583269
vt 0.617837 0.854937
vt 0.617945 0.818104
vt 0.782789 0.857993
vt 0.805209 0.433947
vt 0.811042 0.406507
vt 0.815127 0.425174
vt 0.624610 0.911990
vt 0.782423 0.894693
vt 0.796223 0.915135
vt 0.615412 0.593460
vt 0.780590 0.587435
vt 0.624243 0.986855
vt 0.453777 0.985691
vt 0.624413 0.954354
vt 0.795846 0.957519
vt 0.850710 0.598005
vt 0.838725 0.844153
vt 0.877662 0.603522
vt 0.624187 0.996661
vt 0.453777 0.995472
vt 0.795484 0.999900
vt 0.795566 0.990070
vt 0.905367 0.605444
vt 0.897620 0.847858
vt 0.890829 0.847373
vt 0.899029 0.605131
vt 0.868307 0.845919
vt 0.792187 0.565610
vt 0.804738 0.570918
vt 0.453777 0.953276
vt 0.453777 0.911019
vt 0.617707 0.891717
vt 0.453777 0.890899
vt 0.453778 0.854277
vt 0.452934 0.606239
vt 0.453779 0.817622
vt 0.078478 0.180762
vt 0.099714 0.181188
vt 0.068688 0.421659
vt 0.121564 0.180446
vt 0.091507 0.424250
vt 0.288476 0.145993
vt 0.288414 0.183136
vt 0.121931 0.143349
vt 0.222864 0.999875
vt 0.222864 0.847951
vt 0.334109 0.999875
vt 0.281584 0.088461
vt 0.122270 0.106289
vt 0.108322 0.085683
vt 0.291870 0.409602
vt 0.127269 0.417156
vt 0.281894 0.012935
vt 0.281745 0.045725
vt 0.108669 0.042886
vt 0.055363 0.410301
vt 0.064440 0.158954
vt 0.068322 0.504147
vt 0.055485 0.504360
vt 0.028120 0.405600
vt 0.281944 0.003041
vt 0.109000 0.000095
vt 0.108925 0.010020
vt 0.000095 0.404716
vt 0.004271 0.157277
vt 0.011202 0.157537
vt 0.006514 0.404779
vt 0.034196 0.158219
vt 0.115826 0.440242
vt 0.090959 0.503790
vt 0.101941 0.436225
vt 0.008122 0.505251
vt 0.126711 0.502535
vt 0.453786 0.046665
vt 0.288567 0.108899
vt 0.292128 0.501616
vt 0.082301 0.822290
vt 0.069877 0.586367
vt 0.103050 0.821210
vt 0.092549 0.583254
vt 0.124353 0.821255
vt 0.289710 0.854931
vt 0.124748 0.857989
vt 0.289602 0.818095
vt 0.000125 0.779673
vt 0.111370 0.779673
vt 0.000125 0.931598
vt 0.282936 0.911986
vt 0.111313 0.915134
vt 0.125113 0.894691
vt 0.292129 0.593460
vt 0.126949 0.587420
vt 0.283304 0.986855
vt 0.283133 0.954352
vt 0.111690 0.957521
vt 0.056828 0.597988
vt 0.068808 0.844145
vt 0.029875 0.603504
vt 0.283360 0.996661
vt 0.112053 0.999905
vt 0.111971 0.990073
vt 0.002169 0.605425
vt 0.008507 0.605112
vt 0.016703 0.847362
vt 0.039225 0.845910
vt 0.102802 0.570903
vt 0.115353 0.565595
vt 0.101273 0.503636
vt 0.001255 0.505406
vt 0.289840 0.891713
vt 0.827092 0.331189
vt 0.832115 0.345977
vt 0.825210 0.372533
vt 0.879201 0.504859
vt 0.903276 0.157311
vt 0.790849 0.502527
vt 0.453790 0.501222
vt 0.833391 0.398782
vt 0.828938 0.414265
vt 0.445353 0.779673
vt 0.445353 0.999875
vt 0.222864 0.779673
vt 0.028338 0.504838
vt 0.116692 0.502510
vt 0.222614 0.779673
vt 0.222614 0.999875
vt 0.000125 0.999875
vt 0.009912 0.847847
vn -0.000001 0.000000 1.000000
vn -1.000000 0.000000 -0.000001
vn 0.000000 -1.000000 0.000000
vn -0.000000 1.000000 -0.000000
vn 1.000000 -0.000001 0.000000
vn -0.000002 -0.000000 1.000000
vn 0.000002 0.000009 -1.000000
vn 1.000000 -0.000003 0.000000
vn 1.000000 -0.000006 0.000000
vn 1.000000 -0.000002 0.000000
vn 0.000001 0.000000 -1.000000
vn 0.000001 0.000009 -1.000000
vn -0.901112 0.000006 -0.433586
vn -0.000001 -0.965041 0.262099
vn 0.000000 0.996452 -0.084158
vn 1.000000 -0.000001 0.000001
vn -0.000047 1.000000 0.000021
vn 0.000001 -0.000000 1.000000
vn 1.000000 0.000000 -0.000001
vn -1.000000 -0.000001 0.000000
vn 0.000002 -0.000000 1.000000
vn -0.000002 0.000009 -1.000000
vn -1.000000 -0.000003 -0.000000
vn -0.000001 0.000019 -1.000000
vn -0.000001 0.000006 -1.000000
vn 0.901116 0.000000 -0.433577
vn 0.000001 -0.965041 0.262099
vn -0.000001 -0.000000 -1.000000
vn -0.000001 0.000009 -1.000000
vn -1.000000 0.000001 0.000000
vn 0.000047 1.000000 0.000019
vn 0.000047 1.000000 0.000021
vn -1.000000 0.000000 0.000001
vn -0.000002 -0.000000 -1.000000
vn 0.000002 0.000009 1.000000
vn 0.000001 0.000019 1.000000
vn 0.000001 0.000006 1.000000
vn -0.901116 0.000000 0.433578
vn -0.000001 -0.965041 -0.262100
vn 0.000000 0.996452 0.084158
vn 0.000001 0.000009 1.000000
vn 1.000000 0.000001 -0.000000
vn -0.000047 1.000000 -0.000019
vn -0.000047 1.000000 -0.000021
vn 1.000000 0.000000 0.000001
vn 0.000002 -0.000000 -1.000000
vn -0.000002 0.000009 1.000000
vn -1.000000 -0.000006 -0.000000
vn -1.000000 -0.000002 -0.000000
vn -0.000001 0.000009 1.000000
vn 0.901112 0.000006 0.433586
vn 0.000001 -0.965041 -0.262099
vn -1.000000 -0.000001 -0.000001
vn 0.000047 1.000000 -0.000021
vn 1.000000 -0.000004 0.000001
vn 1.000000 -0.000000 0.000000
vn 0.000001 0.000019 -1.000000
vn 0.000001 0.000006 -1.000000
vn -0.901116 -0.000000 -0.433577
vn 0.011143 0.999531 -0.028536
vn -0.000047 1.000000 0.000019
vn -0.000044 1.000000 0.000019
vn -0.000022 1.000000 0.000020
vn -1.000000 -0.000004 0.000001
vn -1.000000 0.000000 0.000000
vn 0.901112 0.000006 -0.433586
vn -0.011143 0.999531 -0.028536
vn -1.000000 -0.000001 0.000001
vn 0.000044 1.000000 0.000019
vn 0.000022 1.000000 0.000020
vn 1.000000 -0.000004 -0.000001
vn -0.901112 0.000006 0.433586
vn -0.000001 -0.965041 -0.262099
vn 0.011143 0.999531 0.028536
vn 1.000000 -0.000001 -0.000001
vn -0.000043 1.000000 -0.000019
vn -0.000023 1.000000 -0.000020
vn -1.000000 -0.000004 -0.000001
vn -0.000001 0.000019 1.000000
vn -0.000001 0.000006 1.000000
vn 0.901116 0.000000 0.433578
vn 0.000001 -0.965041 -0.262100
vn -0.011143 0.999531 0.028536
vn 0.000047 1.000000 -0.000019
vn 0.000043 1.000000 -0.000019
vn 0.000023 1.000000 -0.000020
usemtl walls
s off
f 9/1/1 5/2/1 6/3/1
f 6/3/1 4/4/1 8/5/1
f 21/6/2 6/7/2 20/8/2
f 1/9/3 13/10/3 11/11/3
f 18/12/4 2/13/4 9/14/4
f 22/15/4 20/8/4 7/16/4
f 16/17/5 15/18/5 73/19/5
f 15/18/5 3/20/5 18/12/5
f 17/21/4 5/2/4 2/22/4
f 5/2/6 32/23/6 4/4/6
f 17/21/7 10/24/7 33/25/7
f 13/26/8 16/17/8 56/27/8
f 1/28/9 14/29/9 16/17/9
f 14/29/10 3/20/10 15/18/10
f 11/30/11 12/31/11 14/32/11
f 12/31/12 10/24/12 3/33/12
f 4/4/13 10/34/13 12/35/13
f 31/36/14 37/37/14 10/34/14
f 11/30/11 26/38/11 40/39/11
f 7/16/15 12/35/15 25/40/15
f 5/2/4 17/21/4 32/23/4
f 3/33/12 10/24/12 17/21/12
f 15/18/16 18/12/16 61/41/16
f 6/7/2 21/6/2 9/14/2
f 19/42/2 21/6/2 63/43/2
f 21/6/2 20/8/2 80/44/2
f 22/15/4 7/16/4 25/40/4
f 22/15/17 51/45/17 81/46/17
f 20/8/4 22/15/4 54/47/4
f 36/48/18 30/49/18 29/50/18
f 30/49/18 35/51/18 28/52/18
f 50/53/19 49/54/19 30/55/19
f 23/56/3 39/57/3 42/58/3
f 47/59/4 36/60/4 24/61/4
f 52/62/4 34/63/4 49/54/4
f 45/64/20 112/65/20 44/66/20
f 44/66/20 47/59/20 27/67/20
f 46/68/4 24/69/4 29/50/4
f 29/50/21 28/52/21 32/23/21
f 46/68/22 33/25/22 38/70/22
f 42/71/23 87/72/23 45/64/23
f 23/73/23 42/71/23 45/64/23
f 43/74/20 45/64/20 44/66/20
f 39/75/24 23/76/24 43/77/24
f 41/78/25 43/77/25 27/79/25
f 28/52/26 34/63/26 41/80/26
f 31/36/27 28/52/27 38/81/27
f 39/75/28 41/78/28 40/39/28
f 34/63/15 25/40/15 41/80/15
f 29/50/4 32/23/4 46/68/4
f 27/79/29 24/69/29 46/68/29
f 44/66/30 101/82/30 95/83/30
f 30/55/19 36/60/19 50/53/19
f 48/84/19 98/85/19 50/53/19
f 50/53/19 119/86/19 49/54/19
f 52/62/31 51/45/31 25/40/31
f 52/62/32 121/87/32 51/45/32
f 49/54/4 84/88/4 52/62/4
f 66/89/28 60/90/28 59/91/28
f 60/90/28 65/92/28 58/93/28
f 79/94/33 78/95/33 60/96/33
f 53/97/3 68/98/3 70/99/3
f 76/100/4 66/101/4 55/102/4
f 82/103/4 62/104/4 78/95/4
f 74/105/5 73/19/5 72/106/5
f 72/106/5 76/100/5 57/107/5
f 75/108/4 55/109/4 59/91/4
f 59/91/34 58/93/34 94/110/34
f 75/108/35 96/111/35 67/112/35
f 70/113/8 56/27/8 74/105/8
f 53/114/8 70/113/8 74/105/8
f 71/115/5 74/105/5 72/106/5
f 68/116/36 53/117/36 71/118/36
f 69/119/37 71/118/37 57/120/37
f 58/93/38 62/104/38 69/121/38
f 93/122/39 58/93/39 67/123/39
f 68/116/18 69/119/18 107/124/18
f 62/104/40 86/125/40 69/121/40
f 59/91/4 94/110/4 75/108/4
f 57/120/41 55/109/41 75/108/41
f 72/106/42 64/126/42 61/41/42
f 60/96/33 66/101/33 79/94/33
f 77/127/33 63/43/33 79/94/33
f 79/94/33 80/44/33 78/95/33
f 82/103/43 120/128/43 86/125/43
f 82/103/44 81/46/44 120/128/44
f 78/95/4 54/47/4 82/103/4
f 103/129/11 91/130/11 92/131/11
f 92/131/11 90/132/11 102/133/11
f 118/134/45 92/135/45 117/136/45
f 83/137/3 109/138/3 106/139/3
f 115/140/4 85/141/4 103/142/4
f 122/143/4 117/136/4 97/144/4
f 113/145/20 111/146/20 112/65/20
f 111/146/20 89/147/20 115/140/20
f 114/148/4 91/130/4 85/149/4
f 91/130/46 94/110/46 90/132/46
f 114/148/47 105/150/47 96/111/47
f 109/151/23 113/145/23 87/72/23
f 83/152/48 110/153/48 113/145/48
f 110/153/49 89/147/49 111/146/49
f 106/154/1 108/155/1 110/156/1
f 108/155/50 105/150/50 89/157/50
f 90/132/51 105/158/51 108/159/51
f 93/122/52 104/160/52 105/158/52
f 106/154/1 88/161/1 107/124/1
f 97/144/40 108/159/40 86/125/40
f 91/130/4 114/148/4 94/110/4
f 89/157/50 105/150/50 114/148/50
f 111/146/53 115/140/53 95/83/53
f 92/135/45 118/134/45 103/142/45
f 116/162/45 118/134/45 98/85/45
f 118/134/45 117/136/45 119/86/45
f 122/143/4 97/144/4 86/125/4
f 122/143/54 120/128/54 121/87/54
f 117/136/4 122/143/4 84/88/4
f 5/2/1 4/4/1 6/3/1
f 4/4/1 7/16/1 8/5/1
f 6/7/2 8/5/2 20/8/2
f 13/10/3 56/163/3 99/164/3
f 11/11/3 13/10/3 99/164/3
f 26/165/3 11/11/3 99/164/3
f 18/12/4 9/14/4 19/42/4
f 61/41/4 18/12/4 63/43/4
f 18/12/4 19/42/4 63/43/4
f 20/8/4 8/5/4 7/16/4
f 15/18/42 64/126/42 73/19/42
f 3/20/55 2/13/55 18/12/55
f 5/2/4 9/1/4 2/22/4
f 32/23/6 31/36/6 4/4/6
f 10/24/7 37/166/7 33/25/7
f 16/17/56 73/19/56 56/27/56
f 13/26/8 1/28/8 16/17/8
f 16/17/5 14/29/5 15/18/5
f 1/167/57 11/30/57 14/32/57
f 14/32/58 12/31/58 3/33/58
f 7/16/59 4/4/59 12/35/59
f 4/4/14 31/36/14 10/34/14
f 12/31/11 11/30/11 40/39/11
f 12/35/60 40/168/60 25/40/60
f 17/21/4 33/25/4 32/23/4
f 2/22/12 3/33/12 17/21/12
f 64/126/42 15/18/42 61/41/42
f 21/6/2 19/42/2 9/14/2
f 21/6/2 80/44/2 63/43/2
f 20/8/2 54/47/2 80/44/2
f 51/45/61 22/15/61 25/40/61
f 51/45/62 100/169/62 81/46/62
f 22/15/63 81/46/63 54/47/63
f 30/49/18 28/52/18 29/50/18
f 35/51/18 34/63/18 28/52/18
f 49/54/19 35/51/19 30/55/19
f 42/58/3 99/170/3 87/171/3
f 39/57/3 26/165/3 99/170/3
f 42/58/3 39/57/3 99/170/3
f 47/59/4 48/84/4 36/60/4
f 95/83/4 98/85/4 47/59/4
f 98/85/4 48/84/4 47/59/4
f 34/63/4 35/51/4 49/54/4
f 112/65/30 101/82/30 44/66/30
f 47/59/64 24/61/64 27/67/64
f 24/69/4 36/48/4 29/50/4
f 28/52/21 31/36/21 32/23/21
f 33/25/22 37/166/22 38/70/22
f 87/72/65 112/65/65 45/64/65
f 43/74/48 23/73/48 45/64/48
f 27/67/49 43/74/49 44/66/49
f 41/78/28 39/75/28 43/77/28
f 38/70/29 41/78/29 27/79/29
f 38/81/66 28/52/66 41/80/66
f 37/37/27 31/36/27 38/81/27
f 26/38/28 39/75/28 40/39/28
f 25/40/67 40/168/67 41/80/67
f 32/23/4 33/25/4 46/68/4
f 38/70/29 27/79/29 46/68/29
f 47/59/68 44/66/68 95/83/68
f 36/60/19 48/84/19 50/53/19
f 98/85/19 119/86/19 50/53/19
f 119/86/19 84/88/19 49/54/19
f 34/63/4 52/62/4 25/40/4
f 121/87/69 100/169/69 51/45/69
f 84/88/70 121/87/70 52/62/70
f 60/90/28 58/93/28 59/91/28
f 65/92/28 62/104/28 58/93/28
f 78/95/33 65/92/33 60/96/33
f 70/99/3 99/172/3 56/173/3
f 68/98/3 88/174/3 99/172/3
f 70/99/3 68/98/3 99/172/3
f 76/100/4 77/127/4 66/101/4
f 61/41/4 63/43/4 76/100/4
f 63/43/4 77/127/4 76/100/4
f 62/104/4 65/92/4 78/95/4
f 73/19/42 64/126/42 72/106/42
f 76/100/71 55/102/71 57/107/71
f 55/109/4 66/89/4 59/91/4
f 58/93/34 93/122/34 94/110/34
f 96/111/35 104/175/35 67/112/35
f 56/27/56 73/19/56 74/105/56
f 71/115/9 53/114/9 74/105/9
f 57/107/10 71/115/10 72/106/10
f 69/119/18 68/116/18 71/118/18
f 67/112/41 69/119/41 57/120/41
f 67/123/72 58/93/72 69/121/72
f 104/160/73 93/122/73 67/123/73
f 88/161/18 68/116/18 107/124/18
f 86/125/74 107/176/74 69/121/74
f 94/110/4 96/111/4 75/108/4
f 67/112/41 57/120/41 75/108/41
f 76/100/75 72/106/75 61/41/75
f 66/101/33 77/127/33 79/94/33
f 63/43/33 80/44/33 79/94/33
f 80/44/33 54/47/33 78/95/33
f 62/104/4 82/103/4 86/125/4
f 81/46/76 100/169/76 120/128/76
f 54/47/77 81/46/77 82/103/77
f 91/130/11 90/132/11 92/131/11
f 90/132/11 97/144/11 102/133/11
f 92/135/45 102/133/45 117/136/45
f 109/138/3 87/177/3 99/178/3
f 106/139/3 109/138/3 99/178/3
f 88/179/3 106/139/3 99/178/3
f 115/140/4 103/142/4 116/162/4
f 95/83/4 115/140/4 98/85/4
f 115/140/4 116/162/4 98/85/4
f 117/136/4 102/133/4 97/144/4
f 111/146/30 101/82/30 112/65/30
f 89/147/78 85/141/78 115/140/78
f 91/130/4 103/129/4 85/149/4
f 94/110/46 93/122/46 90/132/46
f 105/150/47 104/175/47 96/111/47
f 113/145/65 112/65/65 87/72/65
f 109/151/23 83/152/23 113/145/23
f 113/145/20 110/153/20 111/146/20
f 83/180/79 106/154/79 110/156/79
f 110/156/80 108/155/80 89/157/80
f 97/144/81 90/132/81 108/159/81
f 90/132/82 93/122/82 105/158/82
f 108/155/1 106/154/1 107/124/1
f 108/159/83 107/176/83 86/125/83
f 114/148/4 96/111/4 94/110/4
f 85/149/50 89/157/50 114/148/50
f 101/82/30 111/146/30 95/83/30
f 118/134/45 116/162/45 103/142/45
f 118/134/45 119/86/45 98/85/45
f 117/136/45 84/88/45 119/86/45
f 120/128/84 122/143/84 86/125/84
f 120/128/85 100/169/85 121/87/85
f 122/143/86 121/87/86 84/88/86
