# Blender v2.68 (sub 0) OBJ File: ''
# www.blender.org
mtllib redoSky1.mtl
o skybox_foresthills_bottom
v 9.005295 9.005312 -9.005278
v -9.005295 9.005312 -9.005278
v 9.005295 9.005278 9.005312
v -9.005295 9.005278 9.005312
v 9.005295 -9.005278 -9.005312
v 9.005295 9.005312 -9.005278
v 9.005295 -9.005312 9.005278
v 9.005295 9.005278 9.005312
v -9.005295 9.005312 -9.005278
v -9.005295 -9.005278 -9.005312
v -9.005295 9.005278 9.005312
v -9.005295 -9.005312 9.005278
v 9.005295 -9.005312 9.005278
v 9.005295 9.005278 9.005312
v -9.005295 -9.005312 9.005278
v -9.005295 9.005278 9.005312
v 9.005295 -9.005278 -9.005312
v 9.005295 -9.005312 9.005278
v -9.005295 -9.005278 -9.005312
v -9.005295 -9.005312 9.005278
v 9.005295 9.005312 -9.005278
v 9.005295 -9.005278 -9.005312
v -9.005295 9.005312 -9.005278
v -9.005295 -9.005278 -9.005312
vt 0.000000 1.000000
vt 1.000000 1.000000
vt 0.000000 0.000000
vt 1.000000 0.000000
vn -1.000000 -0.000000 -0.000000
vn 0.000000 -0.000002 1.000000
vn 1.000000 -0.000000 0.000000
vn -0.000000 1.000000 0.000002
vn 0.000000 -1.000000 -0.000002
vn 0.000000 0.000002 -1.000000
usemtl skybox_foresthills_front
s off
f 5/1/1 7/2/1 6/3/1
f 6/3/1 7/2/1 8/4/1
usemtl skybox_foresthills_left
f 21/4/2 23/3/2 22/2/2
f 22/2/2 23/3/2 24/1/2
usemtl skybox_foresthills_back
f 9/4/3 11/3/3 10/2/3
f 10/2/3 11/3/3 12/1/3
usemtl skybox_foresthills_bottom
f 17/3/4 19/1/4 18/4/4
f 18/4/4 19/1/4 20/2/4
usemtl skybox_foresthills_top
f 1/3/5 3/1/5 2/4/5
f 2/4/5 3/1/5 4/2/5
usemtl skybox_foresthills_right
f 13/1/6 15/2/6 14/3/6
f 14/3/6 15/2/6 16/4/6
