# Blender v2.68 (sub 0) OBJ File: 'puck2.blend'
# www.blender.org
mtllib puck2.mtl
o Plane
v 0.528182 0.000000 1.000000
v 0.528182 0.000000 -1.000000
v -1.000000 0.237236 0.000000
v 0.528182 0.237236 1.000000
v -1.000000 0.000000 0.000000
v 0.528182 0.237236 -1.000000
vt 0.109743 0.319966
vt 0.501405 0.916175
vt 0.893066 0.322062
vt 0.109939 0.318865
vt 0.893263 0.318865
vt 0.501601 0.917395
vt 0.423852 0.968272
vt 0.032190 0.369742
vt 0.971012 0.369742
vt 0.579350 0.968272
vt 0.109939 0.225948
vt 0.893263 0.225948
vn 0.000000 -1.000000 0.000000
vn -0.000000 1.000000 0.000000
vn -0.547558 0.000000 0.836768
vn -0.547558 0.000000 -0.836768
vn 1.000000 0.000000 -0.000000
usemtl Material.001
s off
f 1/1/1 5/2/1 2/3/1
f 4/4/2 6/5/2 3/6/2
f 5/7/3 1/8/3 3/6/3
f 2/9/4 5/10/4 6/5/4
f 1/11/5 2/12/5 4/4/5
f 1/8/3 4/4/3 3/6/3
f 5/10/4 3/6/4 6/5/4
f 2/12/5 6/5/5 4/4/5
